<svg xmlns="http://www.w3.org/2000/svg" viewBox="0 0 48 48">
  <rect width="48" height="48" rx="10" fill="#0B0C0E"/>
  <path d="M24.20 24.00L24.31 24.41L24.35 24.86L24.29 25.32L24.14 25.80L23.90 26.26L23.55 26.68L23.11 27.05L22.59 27.35L22.00 27.55L21.36 27.64L20.68 27.62L20.00 27.46L19.33 27.18L18.71 26.76L18.15 26.23L17.68 25.57L17.32 24.82L17.10 24.00L17.03 23.12L17.11 22.22L17.37 21.32L17.79 20.46L18.37 19.67L19.10 18.98L19.96 18.41L20.94 17.99L22.00 17.75L23.11 17.70L24.24 17.85L25.35 18.20L26.40 18.75L27.36 19.50L28.19 20.42L28.86 21.50L29.34 22.71L29.60 24.00L29.63 25.35L29.42 26.70L28.97 28.02L28.28 29.27L27.37 30.40L26.25 31.36L24.96 32.13L23.53 32.67L22.00 32.95L20.42 32.96L18.84 32.69L17.30 32.14L15.86 31.32L14.57 30.24L13.47 28.92L12.60 27.42L12.00 25.76L11.70 24.00L11.71 22.19L12.04 20.37L12.69 18.63L13.65 16.99L14.90 15.54L16.40 14.30L18.12 13.33L20.00 12.67L22.00 12.35L24.05 12.38L26.09 12.77L28.05 13.52L29.87 14.62L31.50 16.03L32.87 17.73L33.93 19.66L34.65 21.77L35.00 24.00" fill="none" stroke="#D6DBE4" stroke-width="2.4" stroke-linecap="round"/>
  <path d="M34.5 22.7 H 46" stroke="#C4161C" stroke-width="1.5" stroke-linecap="round"/>
  <path d="M34.5 25.4 H 46" stroke="#C4161C" stroke-width="1.5" stroke-linecap="round"/>
</svg>